# xmcd CD database file
#
# Track frame offsets:
#	150
#	24145
#	44651
#	69476
#	88017
#	115756
#	129300
#	153822
#	180540
#	206372
#	222855
#	249575
#
# Disc length: 3983 seconds
#
# Revision: 0
# Processed by: cddbd v1.5.2PL0 Copyright (c) Steve Scherf et al.
# Submitted via: CDex 1.51
#
DISCID=980f8d0c
DTITLE=Blackburn - Brotherhood
DYEAR=2009
DGENRE=Blues
TTITLE0=Movin'
TTITLE1=Soul Searching
TTITLE2=Fever
TTITLE3=Four Brothers
TTITLE4=Talk To Me
TTITLE5=Further On Up the Road
TTITLE6=Hush
TTITLE7=Sister Rosa
TTITLE8=Back At the Zanzibar
TTITLE9=Survival
TTITLE10=The Thrill is Gone
TTITLE11=Junker Blues
EXTD=YEAR: 2009
EXTT0=
EXTT1=
EXTT2=
EXTT3=
EXTT4=
EXTT5=
EXTT6=
EXTT7=
EXTT8=
EXTT9=
EXTT10=
EXTT11=
PLAYORDER=
